#N canvas -8 22 1041 545 10;
#X floatatom 175 -20 0 0 0 0 - - -;
#N canvas 159 26 497 268 output 1;
#X obj 338 160 t b;
#X obj 338 110 f;
#X obj 338 60 inlet;
#X text 344 29 mute;
#X obj 338 185 f;
#X msg 425 178 0;
#X msg 338 85 bang;
#X obj 338 135 moses 1;
#X obj 425 153 t b f;
#X obj 397 117 moses 1;
#X obj 83 148 dbtorms;
#X obj 397 92 r master-lvl;
#X obj 83 42 r master-lvl;
#X obj 338 210 s master-lvl;
#X obj 22 181 inlet~;
#X obj 199 41 inlet;
#X text 199 18 level;
#X obj 199 100 s master-lvl;
#X msg 96 65 set \$1;
#X obj 96 89 outlet;
#X msg 214 64 \; pd dsp 1;
#X obj 83 194 line~;
#X obj 22 212 *~;
#X obj 22 241 dac~;
#X obj 83 171 pack 0 50;
#X text 20 158 audio;
#X text 93 110 show level;
#X connect 0 0 4 0;
#X connect 1 0 7 0;
#X connect 2 0 6 0;
#X connect 4 0 13 0;
#X connect 5 0 13 0;
#X connect 6 0 1 0;
#X connect 7 0 0 0;
#X connect 7 1 8 0;
#X connect 8 0 5 0;
#X connect 9 1 4 1;
#X connect 10 0 24 0;
#X connect 11 0 1 1;
#X connect 11 0 9 0;
#X connect 12 0 10 0;
#X connect 12 0 18 0;
#X connect 14 0 22 0;
#X connect 15 0 17 0;
#X connect 15 0 20 0;
#X connect 18 0 19 0;
#X connect 21 0 22 1;
#X connect 22 0 23 0;
#X connect 22 0 23 1;
#X connect 24 0 21 0;
#X restore 127 5 pd output;
#X msg 233 5 MUTE;
#X text 241 -17 <-- output amplitude;
#X obj 213 -46 loadbang;
#X msg 208 -19 94;
#X obj 99 -72 smpl;
#X obj 100 -141 bng 15 250 50 0 empty empty empty 17 7 0 10 -262144
-1 -1;
#X connect 0 0 1 1;
#X connect 1 0 0 0;
#X connect 2 0 1 2;
#X connect 4 0 5 0;
#X connect 5 0 0 0;
#X connect 6 0 1 0;
#X connect 7 0 6 0;
