#N canvas 29 62 1009 703 12;
#X symbolatom 268 651 50 0 0 0 - - -;
#X obj 268 621 r lastload;
#X msg 913 164 samples/SHAKE1.WAV;
#X text 438 600 pitch is based at 100 as natural playback speed;
#X text 438 617 load samples with bang and copy path into loader message
;
#X obj 409 105 bng 25 250 50 0 empty empty play 30 10 0 8 -258699 -241291
-1;
#X obj 445 135 bng 25 250 50 0 empty empty load 30 10 0 8 -258699 -241291
-1;
#X obj 418 232 outlet~;
#X floatatom 374 140 5 0 0 0 - - -;
#X text 367 158 volume;
#X obj 525 232 s lastload;
#X obj 409 82 inlet;
#X obj 556 126 loadbang;
#X obj 465 76 tgl 15 0 empty empty empty 17 7 0 10 -262144 -1 -1 0
1;
#X msg 500 118 bang;
#X obj 68 94 bng 25 250 50 0 empty empty play 30 10 0 8 -258699 -241291
-1;
#X obj 104 124 bng 25 250 50 0 empty empty load 30 10 0 8 -258699 -241291
-1;
#X obj 77 221 outlet~;
#X floatatom 33 129 5 0 0 0 - - -;
#X text 26 147 volume;
#X obj 184 221 s lastload;
#X obj 68 71 inlet;
#X obj 215 115 loadbang;
#X obj 124 65 tgl 15 0 empty empty empty 17 7 0 10 -262144 -1 -1 0
1;
#X msg 159 107 bang;
#X obj 112 344 bng 25 250 50 0 empty empty play 30 10 0 8 -258699 -241291
-1;
#X obj 148 374 bng 25 250 50 0 empty empty load 30 10 0 8 -258699 -241291
-1;
#X obj 121 471 outlet~;
#X floatatom 77 379 5 0 0 0 - - -;
#X text 70 397 volume;
#X obj 228 471 s lastload;
#X obj 112 321 inlet;
#X obj 259 365 loadbang;
#X obj 168 315 tgl 15 0 empty empty empty 17 7 0 10 -262144 -1 -1 0
1;
#X msg 203 357 bang;
#X obj 539 366 bng 25 250 50 0 empty empty play 30 10 0 8 -258699 -241291
-1;
#X obj 575 396 bng 25 250 50 0 empty empty load 30 10 0 8 -258699 -241291
-1;
#X obj 548 493 outlet~;
#X floatatom 504 401 5 0 0 0 - - -;
#X text 497 419 volume;
#X obj 655 493 s lastload;
#X obj 539 343 inlet;
#X obj 686 387 loadbang;
#X obj 595 337 tgl 15 0 empty empty empty 17 7 0 10 -262144 -1 -1 0
1;
#X msg 630 379 bang;
#X obj 766 98 bng 25 250 50 0 empty empty play 30 10 0 8 -258699 -241291
-1;
#X obj 802 128 bng 25 250 50 0 empty empty load 30 10 0 8 -258699 -241291
-1;
#X obj 775 225 outlet~;
#X floatatom 731 133 5 0 0 0 - - -;
#X text 724 151 volume;
#X obj 882 225 s lastload;
#X obj 766 75 inlet;
#X obj 822 69 tgl 15 0 empty empty empty 17 7 0 10 -262144 -1 -1 0
1;
#X msg 857 111 bang;
#X obj 914 124 loadbang;
#X obj 77 193 smplplayer 6;
#X obj 121 443 smplplayer 7;
#X obj 418 204 smplplayer 8;
#X obj 548 465 smplplayer 9;
#X obj 775 197 smplplayer 10;
#X obj 124 28 r loopTwo;
#X obj 159 71 r stopTwo;
#X obj 168 278 r loopTwo;
#X obj 203 321 r stopTwo;
#X obj 630 343 r stopTwo;
#X obj 500 82 r stopTwo;
#X obj 595 300 r loopTwo;
#X obj 465 39 r loopTwo;
#X obj 822 32 r loopTwo;
#X obj 857 75 r stopTwo;
#X msg 258 411 samples/_2.race.aif;
#X msg 214 160 samples/_1.jetplane.aif;
#X msg 556 170 samples/_3.splash.aif;
#X msg 686 426 samples/_4.helicopter.aif;
#X connect 1 0 0 0;
#X connect 2 0 59 5;
#X connect 5 0 57 1;
#X connect 6 0 57 2;
#X connect 8 0 57 0;
#X connect 11 0 5 0;
#X connect 12 0 72 0;
#X connect 13 0 57 3;
#X connect 14 0 57 4;
#X connect 15 0 55 1;
#X connect 16 0 55 2;
#X connect 18 0 55 0;
#X connect 21 0 15 0;
#X connect 22 0 71 0;
#X connect 23 0 55 3;
#X connect 24 0 55 4;
#X connect 25 0 56 1;
#X connect 26 0 56 2;
#X connect 28 0 56 0;
#X connect 31 0 25 0;
#X connect 32 0 70 0;
#X connect 33 0 56 3;
#X connect 34 0 56 4;
#X connect 35 0 58 1;
#X connect 36 0 58 2;
#X connect 38 0 58 0;
#X connect 41 0 35 0;
#X connect 42 0 73 0;
#X connect 43 0 58 3;
#X connect 44 0 58 4;
#X connect 45 0 59 1;
#X connect 46 0 59 2;
#X connect 48 0 59 0;
#X connect 51 0 45 0;
#X connect 52 0 59 3;
#X connect 53 0 59 4;
#X connect 54 0 2 0;
#X connect 55 0 17 0;
#X connect 55 1 20 0;
#X connect 56 0 27 0;
#X connect 56 1 30 0;
#X connect 57 0 7 0;
#X connect 57 1 10 0;
#X connect 58 0 37 0;
#X connect 58 1 40 0;
#X connect 59 0 47 0;
#X connect 59 1 50 0;
#X connect 60 0 23 0;
#X connect 61 0 24 0;
#X connect 62 0 33 0;
#X connect 63 0 34 0;
#X connect 64 0 44 0;
#X connect 65 0 14 0;
#X connect 66 0 43 0;
#X connect 67 0 13 0;
#X connect 68 0 52 0;
#X connect 69 0 53 0;
#X connect 70 0 56 5;
#X connect 71 0 55 5;
#X connect 72 0 57 5;
#X connect 73 0 58 5;
