#N canvas 19 40 1261 740 12;
#X declare -lib iemgui;
#X declare -lib iemlib;
#X declare -lib iemlib;
#X msg 268 97 \; pd dsp \$1;
#X obj 268 70 tgl 15 0 empty empty empty 0 -6 0 8 -262144 -1 -1 1 1
;
#N canvas 448 196 832 454 followPan 0;
#X obj 12 50 inlet;
#X obj 71 226 inlet;
#X obj 7 159 line;
#X obj 7 109 - 64;
#X obj 66 278 - 64;
#X obj 7 182 s Voice1_x;
#X msg 7 136 \$1 250;
#X obj 68 322 line;
#X msg 68 299 \$1 250;
#X obj 68 345 s Voice1_y;
#X text 168 53 <- sottrae 64 per riportare il range a -64 \, +64 da
0 \, 128;
#X text 278 143 questi valori vengono poi ricevuti da _3dVoiceCalc
Voice1 \, se faccio qualcosa di simile che poi li invia a un equivalente
Voice2 probabilmente riesco a gestire due voci diverse contemporaneamente
;
#X text 390 259 comment;
#X connect 0 0 3 0;
#X connect 1 0 4 0;
#X connect 2 0 5 0;
#X connect 3 0 6 0;
#X connect 4 0 8 0;
#X connect 6 0 2 0;
#X connect 7 0 9 0;
#X connect 8 0 7 0;
#X restore 248 1021 pd followPan;
#X obj 182 832 cnv 15 20 20 empty empty L 2 10 1 16 -262144 -66577
0;
#X obj 235 868 grid grid1 128 0 128 128 0 128 0 1 1 10 10 308.958 950.497
;
#N canvas 0 22 473 308 README 0;
#X obj 3 45 cnv 15 440 100 empty empty empty 20 12 0 14 -36239 -66577
0;
#X text 24 44 Patch updated for demonstration for;
#X text 26 65 "Granular Synthesis in Next-Generation Games" by;
#X text 31 84 Leonard J. Paul - GDC 2006;
#X text 52 104 http://www.VideoGameAudio.com;
#X obj 3 149 cnv 15 440 100 empty empty empty 20 12 0 14 -72606 -66577
0;
#X text 6 147 Original granular synthesis patch by Nobuyasu Sakonda
;
#X text 5 171 Port to PD by Bill (Orcutt?);
#X text 25 230 See README.TXT for more details;
#X text 3 193 Surround features \, additional windowing by Leonard
Paul;
#X obj 3 -19 cnv 15 440 60 empty empty empty 20 12 0 14 -163334 -66577
0;
#X text 5 -17 Granular Synthesis PD Patch in 5.1 Surround;
#X text 50 124 info [at] VideoGameAudio.com;
#X text 28 19 Version 4 for GameSoundCon 2009 - San Francisco - Nov
2009;
#X restore 434 23 pd README;
#N canvas 74 83 474 324 surroundSetup 0;
#X obj 143 248 _surroundRouting;
#X obj 22 137 catch~ sfx3d_L;
#X obj 63 164 catch~ sfx3d_R;
#X obj 148 138 catch~ sfx3d_C;
#X obj 191 165 catch~ sfx3d_Lf;
#X obj 276 139 catch~ sfx3d_Ls;
#X obj 320 166 catch~ sfx3d_Rs;
#X obj 19 233 tgl 15 0 empty empty RecordOutput 0 -6 0 8 -262144 -1
-1 0 1;
#X text 87 269 change in here for true surround;
#X connect 1 0 0 1;
#X connect 2 0 0 2;
#X connect 3 0 0 3;
#X connect 4 0 0 4;
#X connect 5 0 0 5;
#X connect 6 0 0 6;
#X connect 7 0 0 0;
#X restore 45 114 pd surroundSetup;
#X obj 433 57 import iemgui;
#X obj 283 696 loadbang;
#N canvas 492 271 470 320 initSurround 0;
#X obj 9 45 _3dVoiceCalc Voice1;
#X obj 290 4 loadbang;
#X text 7 24 3d Surround by Leonard Paul;
#X obj 10 77 _3dVoiceCalc Voice2;
#X msg 246 70 \; Voice1_x 0 \, \; Voice1_y -4 \, \; Voice2_x 0 \, \;
Voice2_y -4 \, \;;
#X connect 1 0 4 0;
#X restore 44 70 pd initSurround;
#X msg 283 754 goto 64 60;
#X text 42 20 Surround 5.1;
#X obj 687 37 bng 15 250 50 0 empty empty empty 0 -6 0 10 -262144 -1
-1;
#X text 620 20 port 12345 ->;
#X obj 290 815 cnv 15 20 20 empty empty C 2 10 1 16 -262144 -66577
0;
#X obj 381 838 cnv 15 20 20 empty empty R 2 10 1 16 -262144 -66577
0;
#X obj 199 994 cnv 15 20 20 empty empty Ls 2 10 1 14 -262144 -66577
0;
#X obj 385 994 cnv 15 20 20 empty empty Rs 2 10 1 14 -262144 -66577
0;
#X floatatom 392 497 5 0 0 0 x - -;
#X floatatom 448 496 5 0 0 0 y - -;
#X obj 392 546 * 128;
#X floatatom 392 629 5 0 0 0 - - -;
#X obj 448 545 * 128;
#X floatatom 448 626 5 0 0 0 - - -;
#X obj 392 717 pack f f;
#X msg 392 763 goto \$1 \$2;
#X obj 448 656 t b f;
#X obj 45 335 bng 15 250 50 0 empty empty empty 17 7 0 10 -262144 -1
-1;
#X obj 70 335 bng 15 250 50 0 empty empty empty 17 7 0 10 -262144 -1
-1;
#X obj 96 334 bng 15 250 50 0 empty empty empty 17 7 0 10 -262144 -1
-1;
#X obj 124 335 bng 15 250 50 0 empty empty empty 17 7 0 10 -262144
-1 -1;
#X obj 52 398 instrmnts _____;
#X obj 1022 833 cnv 15 20 20 empty empty L 2 10 1 16 -262144 -66577
0;
#X obj 1069 856 grid grid1 128 0 128 128 0 128 0 1 1 10 10 1132.75
941.436;
#X obj 1129 816 cnv 15 20 20 empty empty C 2 10 1 16 -262144 -66577
0;
#X obj 1211 837 cnv 15 20 20 empty empty R 2 10 1 16 -262144 -66577
0;
#N canvas 252 107 832 454 followPan 0;
#X obj 12 50 inlet;
#X obj 71 226 inlet;
#X obj 7 159 line;
#X obj 7 109 - 64;
#X obj 66 278 - 64;
#X msg 7 136 \$1 250;
#X obj 68 322 line;
#X msg 68 299 \$1 250;
#X text 168 53 <- sottrae 64 per riportare il range a -64 \, +64 da
0 \, 128;
#X text 278 143 questi valori vengono poi ricevuti da _3dVoiceCalc
Voice1 \, se faccio qualcosa di simile che poi li invia a un equivalente
Voice2 probabilmente riesco a gestire due voci diverse contemporaneamente
;
#X obj 7 182 s Voice2_x;
#X obj 68 345 s Voice2_y;
#X connect 0 0 3 0;
#X connect 1 0 4 0;
#X connect 2 0 10 0;
#X connect 3 0 5 0;
#X connect 4 0 7 0;
#X connect 5 0 2 0;
#X connect 6 0 11 0;
#X connect 7 0 6 0;
#X restore 1092 1035 pd followPan;
#X obj 1043 1008 cnv 15 20 20 empty empty Ls 2 10 1 14 -262144 -66577
0;
#X obj 1222 1003 cnv 15 20 20 empty empty Rs 2 10 1 14 -262144 -66577
0;
#X text 1206 1037 <-- va a _3dVoiceCalc;
#X obj 832 700 loadbang;
#X msg 832 735 goto 64 60;
#X obj 607 499 testsig~;
#X obj 708 56 OSCroute /marker /victory;
#X obj 395 192 unpack f f f;
#X obj 796 301 unpack f f f;
#X obj 788 486 bng 15 250 50 0 empty empty empty 17 7 0 10 -262144
-1 -1;
#X obj 813 486 bng 15 250 50 0 empty empty empty 17 7 0 10 -262144
-1 -1;
#X obj 839 485 bng 15 250 50 0 empty empty empty 17 7 0 10 -262144
-1 -1;
#X obj 867 486 bng 15 250 50 0 empty empty empty 17 7 0 10 -262144
-1 -1;
#X floatatom 995 438 5 0 0 0 x - -;
#X floatatom 1051 437 5 0 0 0 y - -;
#X obj 995 487 * 128;
#X floatatom 995 570 5 0 0 0 - - -;
#X obj 1051 486 * 128;
#X floatatom 1051 570 5 0 0 0 - - -;
#X obj 983 692 pack f f;
#X msg 983 738 goto \$1 \$2;
#X obj 1051 597 t b f;
#X obj 37 556 throw~ Voice1_3dVoiceOutput;
#X obj 274 530 testsig~;
#X obj 530 582 throw~ Voice2_3dVoiceOutput;
#X obj 795 89 unpack f f f;
#X floatatom 387 248 5 0 0 0 - - -;
#X floatatom 791 362 5 0 0 0 - - -;
#X floatatom 794 125 5 0 0 0 - - -;
#X floatatom 850 125 5 0 0 0 - - -;
#X floatatom 905 128 5 0 0 0 - - -;
#X msg 1246 351 bang;
#X floatatom 1122 423 5 0 0 0 - - -;
#X msg 1174 362 1;
#X msg 1121 362 0;
#X obj 705 170 OSCroute /padOne /padTwo /deleteOne /deleteTwo;
#X msg 1173 326 bang;
#X msg 1121 327 bang;
#X obj 1121 287 select 0 1 2;
#X msg 1429 266 bang;
#X floatatom 1305 338 5 0 0 0 - - -;
#X msg 1357 277 1;
#X msg 1304 277 0;
#X msg 1356 241 bang;
#X msg 1304 242 bang;
#X obj 1304 202 select 0 1 2;
#X obj 1017 242 unpack f;
#X obj 1159 216 unpack f;
#X obj 1121 478 s loopOne;
#X obj 1232 413 s stopOne;
#X obj 1304 393 s loopTwo;
#X obj 1430 320 s stopTwo;
#X obj 795 549 instrmnts2 _____;
#X obj 1229 322 bng 15 250 50 0 empty empty empty 17 7 0 10 -262144
-1 -1;
#X obj 245 340 bng 15 250 50 0 empty empty empty 17 7 0 10 -262144
-1 -1;
#X obj 244 384 instrmnts3 _____;
#X obj 787 429 select 6 7 8 9 10;
#X obj 152 331 bng 15 250 50 0 empty empty empty 17 7 0 10 -262144
-1 -1;
#X obj 896 484 bng 15 250 50 0 empty empty empty 17 7 0 10 -262144
-1 -1;
#X obj 556 653 * -1;
#X obj 556 692 + 128;
#X obj 555 730 / 2;
#X text 604 732 così limiti la gamma;
#X text 614 693 riporti la gamma a 0-128;
#X text 612 651 inverti la gamma;
#X obj 1132 528 * -1;
#X obj 1132 567 + 128;
#X obj 1131 605 / 2;
#X obj 663 414 vsl 15 30 0 100 0 0 empty empty dB 2 16 0 10 -260818
-1 -1 2800 1;
#N canvas 0 22 450 300 vol 0;
#X obj 104 142 dbtorms;
#X msg 104 164 \$1 50;
#X obj 104 187 line~;
#X obj 88 225 *~;
#X obj 86 53 inlet~ sig;
#X obj 330 52 inlet io;
#X obj 204 53 inlet vol;
#X obj 204 87 f;
#X obj 204 115 spigot 0;
#X obj 330 87 sel 0;
#X obj 360 115 t b b;
#X msg 239 88 1;
#X msg 271 88 0;
#X obj 330 149 t b b;
#X obj 88 267 outlet~;
#X msg 175 149 0;
#X connect 0 0 1 0;
#X connect 1 0 2 0;
#X connect 2 0 3 1;
#X connect 3 0 14 0;
#X connect 4 0 3 0;
#X connect 5 0 9 0;
#X connect 6 0 7 0;
#X connect 7 0 8 0;
#X connect 8 0 0 0;
#X connect 9 0 13 0;
#X connect 9 1 10 0;
#X connect 10 0 7 0;
#X connect 10 1 11 0;
#X connect 11 0 8 1;
#X connect 12 0 8 1;
#X connect 13 0 15 0;
#X connect 13 1 12 0;
#X connect 15 0 0 0;
#X restore 87 524 pd vol;
#X obj 202 513 tgl 15 0 empty empty empty 17 7 0 10 -262144 -1 -1 1
1;
#N canvas 0 22 450 300 vol 0;
#X obj 104 142 dbtorms;
#X msg 104 164 \$1 50;
#X obj 104 187 line~;
#X obj 88 225 *~;
#X obj 86 53 inlet~ sig;
#X obj 330 52 inlet io;
#X obj 204 53 inlet vol;
#X obj 204 87 f;
#X obj 204 115 spigot 0;
#X obj 330 87 sel 0;
#X obj 360 115 t b b;
#X msg 239 88 1;
#X msg 271 88 0;
#X obj 330 149 t b b;
#X obj 88 267 outlet~;
#X msg 175 149 0;
#X connect 0 0 1 0;
#X connect 1 0 2 0;
#X connect 2 0 3 1;
#X connect 3 0 14 0;
#X connect 4 0 3 0;
#X connect 5 0 9 0;
#X connect 6 0 7 0;
#X connect 7 0 8 0;
#X connect 8 0 0 0;
#X connect 9 0 13 0;
#X connect 9 1 10 0;
#X connect 10 0 7 0;
#X connect 10 1 11 0;
#X connect 11 0 8 1;
#X connect 12 0 8 1;
#X connect 13 0 15 0;
#X connect 13 1 12 0;
#X connect 15 0 0 0;
#X restore 804 645 pd vol;
#X obj 919 634 tgl 15 0 empty empty empty 17 7 0 10 -262144 -1 -1 1
1;
#X obj 708 20 dumpOSC 12345;
#N canvas 0 22 450 300 vol 0;
#X obj 104 142 dbtorms;
#X msg 104 164 \$1 50;
#X obj 104 187 line~;
#X obj 88 225 *~;
#X obj 86 53 inlet~ sig;
#X obj 330 52 inlet io;
#X obj 204 53 inlet vol;
#X obj 204 87 f;
#X obj 204 115 spigot 0;
#X obj 330 87 sel 0;
#X obj 360 115 t b b;
#X msg 239 88 1;
#X msg 271 88 0;
#X obj 330 149 t b b;
#X obj 88 267 outlet~;
#X msg 175 149 0;
#X connect 0 0 1 0;
#X connect 1 0 2 0;
#X connect 2 0 3 1;
#X connect 3 0 14 0;
#X connect 4 0 3 0;
#X connect 5 0 9 0;
#X connect 6 0 7 0;
#X connect 7 0 8 0;
#X connect 8 0 0 0;
#X connect 9 0 13 0;
#X connect 9 1 10 0;
#X connect 10 0 7 0;
#X connect 10 1 11 0;
#X connect 11 0 8 1;
#X connect 12 0 8 1;
#X connect 13 0 15 0;
#X connect 13 1 12 0;
#X connect 15 0 0 0;
#X restore 225 463 pd vol;
#X obj 340 452 tgl 15 0 empty empty empty 17 7 0 10 -262144 -1 -1 1
1;
#X obj 429 371 vsl 15 30 0 100 0 0 empty empty dB 2 16 0 10 -260818
-1 -1 2700 1;
#X text 670 1006 comment;
#X obj 1439 1076 unpack f;
#X floatatom 1415 1128 5 0 0 0 x - -;
#X floatatom 1471 1127 5 0 0 0 y - -;
#X obj 1415 1177 * 128;
#X floatatom 1415 1260 5 0 0 0 - - -;
#X obj 1471 1176 * 128;
#X floatatom 1471 1260 5 0 0 0 - - -;
#X obj 1392 1374 pack f f;
#X msg 1392 1420 goto \$1 \$2;
#X obj 1471 1287 t b f;
#X obj 1415 1214 / 550;
#X obj 1471 1215 / 400;
#X obj 44 278 select 6 7 8 9 10;
#X obj 294 305 select 6 7 8 9 10;
#X obj 392 583 / 640;
#X obj 448 584 / 360;
#X obj 995 524 / 640;
#X obj 1051 525 / 360;
#X text 725 965 ricordati di ricambiare il MAP in funzione del file
che usi;
#X text 506 586;
#X connect 1 0 0 0;
#X connect 4 0 2 0;
#X connect 4 1 2 1;
#X connect 8 0 10 0;
#X connect 10 0 4 0;
#X connect 18 0 20 0;
#X connect 19 0 22 0;
#X connect 20 0 129 0;
#X connect 21 0 24 0;
#X connect 22 0 130 0;
#X connect 23 0 26 0;
#X connect 24 0 25 0;
#X connect 25 0 4 0;
#X connect 26 0 24 0;
#X connect 26 1 24 1;
#X connect 27 0 31 0;
#X connect 28 0 31 1;
#X connect 29 0 31 2;
#X connect 30 0 31 3;
#X connect 31 0 106 0;
#X connect 31 1 106 0;
#X connect 31 2 106 0;
#X connect 31 3 106 0;
#X connect 31 4 106 0;
#X connect 33 0 36 0;
#X connect 33 1 36 1;
#X connect 40 0 41 0;
#X connect 41 0 33 0;
#X connect 42 0 61 0;
#X connect 43 0 72 0;
#X connect 43 1 62 0;
#X connect 44 0 63 0;
#X connect 44 1 18 0;
#X connect 44 2 19 0;
#X connect 45 0 64 0;
#X connect 45 1 50 0;
#X connect 45 2 51 0;
#X connect 46 0 89 0;
#X connect 47 0 89 1;
#X connect 48 0 89 2;
#X connect 49 0 89 3;
#X connect 50 0 52 0;
#X connect 51 0 54 0;
#X connect 52 0 131 0;
#X connect 53 0 56 0;
#X connect 54 0 132 0;
#X connect 55 0 58 0;
#X connect 56 0 57 0;
#X connect 57 0 33 0;
#X connect 58 0 56 0;
#X connect 58 1 56 1;
#X connect 60 0 59 0;
#X connect 62 0 65 0;
#X connect 62 1 66 0;
#X connect 62 2 67 0;
#X connect 63 0 127 0;
#X connect 64 0 93 0;
#X connect 65 0 128 0;
#X connect 66 0 18 0;
#X connect 67 0 19 0;
#X connect 68 0 86 0;
#X connect 69 0 85 0;
#X connect 70 0 69 0;
#X connect 71 0 69 0;
#X connect 72 0 44 0;
#X connect 72 1 45 0;
#X connect 72 2 83 0;
#X connect 72 3 84 0;
#X connect 73 0 70 0;
#X connect 74 0 71 0;
#X connect 75 0 74 0;
#X connect 75 1 73 0;
#X connect 75 2 90 0;
#X connect 76 0 88 0;
#X connect 77 0 87 0;
#X connect 78 0 77 0;
#X connect 79 0 77 0;
#X connect 80 0 78 0;
#X connect 81 0 79 0;
#X connect 82 0 81 0;
#X connect 82 1 80 0;
#X connect 82 2 76 0;
#X connect 83 0 75 0;
#X connect 84 0 82 0;
#X connect 89 0 108 0;
#X connect 89 1 108 0;
#X connect 89 2 108 0;
#X connect 89 3 108 0;
#X connect 89 4 108 0;
#X connect 90 0 68 0;
#X connect 91 0 92 1;
#X connect 92 0 111 0;
#X connect 92 1 111 0;
#X connect 92 2 111 0;
#X connect 92 3 111 0;
#X connect 92 4 111 0;
#X connect 93 0 46 0;
#X connect 93 1 47 0;
#X connect 93 2 48 0;
#X connect 93 3 49 0;
#X connect 93 4 95 0;
#X connect 94 0 31 4;
#X connect 95 0 89 4;
#X connect 96 0 97 0;
#X connect 97 0 98 0;
#X connect 102 0 103 0;
#X connect 103 0 104 0;
#X connect 105 0 106 1;
#X connect 105 0 108 1;
#X connect 106 0 59 0;
#X connect 107 0 106 2;
#X connect 108 0 61 0;
#X connect 109 0 108 2;
#X connect 110 0 12 0;
#X connect 110 0 43 0;
#X connect 111 0 59 0;
#X connect 112 0 111 2;
#X connect 113 0 111 1;
#X connect 116 0 118 0;
#X connect 117 0 120 0;
#X connect 118 0 125 0;
#X connect 119 0 122 0;
#X connect 120 0 126 0;
#X connect 121 0 124 0;
#X connect 122 0 123 0;
#X connect 124 0 122 0;
#X connect 124 1 122 1;
#X connect 125 0 119 0;
#X connect 127 0 27 0;
#X connect 127 1 28 0;
#X connect 127 2 29 0;
#X connect 127 3 30 0;
#X connect 127 4 94 0;
#X connect 128 0 91 0;
#X connect 128 1 91 0;
#X connect 128 2 91 0;
#X connect 128 3 91 0;
#X connect 128 4 91 0;
#X connect 129 0 21 0;
#X connect 130 0 23 0;
#X connect 131 0 53 0;
#X connect 132 0 55 0;
#X coords 0 0 1 1 85 60 0;
