#N canvas 190 38 1009 703 12;
#X obj 204 499 outlet~;
#X msg 234 183 bang;
#X text 287 182 <-- play the sample;
#X obj 204 474 *~ 1;
#X obj 394 42 table \$1-sampletable;
#X obj 609 305 openpanel;
#X obj 609 464 soundfiler;
#X msg 609 278 bang;
#X text 653 278 read file;
#X obj 609 331 t s b;
#X obj 648 366 symbol \$1-sampletable;
#X msg 609 435 read -resize \$1 \$2;
#X obj 609 404 pack s s;
#X obj 451 116 inlet;
#X obj 279 117 inlet;
#X obj 103 139 inlet;
#X obj 855 122 inlet;
#X obj 555 244 symbol;
#X obj 586 547 outlet;
#X floatatom 638 502 5 0 0 0 - - -;
#X obj 204 404 tabplay~ \$1-sampletable;
#X obj 302 224 spigot;
#X obj 369 246 tgl 15 0 empty empty empty 17 7 0 10 -262144 -1 -1 0
1;
#X obj 634 122 inlet;
#X msg 353 356 stop;
#X obj 766 122 inlet;
#X obj 236 360 line~;
#X obj 204 440 *~;
#X msg 237 315 1 5;
#X obj 352 317 delay 10;
#X msg 285 315 0 10;
#X connect 1 0 20 0;
#X connect 1 0 28 0;
#X connect 3 0 0 0;
#X connect 5 0 9 0;
#X connect 5 0 18 0;
#X connect 6 0 19 0;
#X connect 7 0 5 0;
#X connect 9 0 12 0;
#X connect 9 1 10 0;
#X connect 10 0 12 1;
#X connect 11 0 6 0;
#X connect 12 0 11 0;
#X connect 13 0 7 0;
#X connect 14 0 1 0;
#X connect 15 0 3 1;
#X connect 16 0 17 0;
#X connect 17 0 9 0;
#X connect 17 0 18 0;
#X connect 20 0 27 0;
#X connect 20 1 21 0;
#X connect 21 0 1 0;
#X connect 22 0 21 1;
#X connect 23 0 22 0;
#X connect 24 0 20 0;
#X connect 25 0 30 0;
#X connect 25 0 29 0;
#X connect 26 0 27 1;
#X connect 27 0 3 0;
#X connect 28 0 26 0;
#X connect 29 0 24 0;
#X connect 30 0 26 0;
